<mxfile host="app.diagrams.net" modified="2022-03-18T05:11:39.581Z" agent="5.0 (X11)" etag="KFLdYNJWIsrBB-YkKryJ" version="17.1.3" type="github">
  <diagram name="Page-1" id="7e0a89b8-554c-2b80-1dc8-d5c74ca68de4">
    <mxGraphModel dx="1125" dy="661" grid="1" gridSize="10" guides="1" tooltips="1" connect="1" arrows="1" fold="1" page="1" pageScale="1" pageWidth="1100" pageHeight="850" background="none" math="0" shadow="0">
      <root>
        <mxCell id="0" />
        <mxCell id="1" parent="0" />
        <mxCell id="3aa4n7tsI6vNhi9zj3cc-1" value="&lt;div&gt;Drawing Number&lt;br&gt;&lt;/div&gt;" style="rounded=0;whiteSpace=wrap;html=1;align=left;verticalAlign=top;" vertex="1" parent="1">
          <mxGeometry x="770" y="730" width="280" height="80" as="geometry" />
        </mxCell>
        <mxCell id="3aa4n7tsI6vNhi9zj3cc-2" value="E-005" style="rounded=0;whiteSpace=wrap;html=1;align=center;verticalAlign=middle;labelBorderColor=none;fillColor=none;strokeColor=none;fontSize=24;" vertex="1" parent="1">
          <mxGeometry x="890" y="760" width="50" height="30" as="geometry" />
        </mxCell>
        <mxCell id="3aa4n7tsI6vNhi9zj3cc-3" value="Title" style="rounded=0;whiteSpace=wrap;html=1;align=left;verticalAlign=top;" vertex="1" parent="1">
          <mxGeometry x="770" y="620" width="280" height="110" as="geometry" />
        </mxCell>
        <mxCell id="3aa4n7tsI6vNhi9zj3cc-4" value="Electrical System Block Diagram" style="rounded=0;whiteSpace=wrap;html=1;align=center;verticalAlign=middle;labelBorderColor=none;fillColor=none;strokeColor=none;fontSize=24;" vertex="1" parent="1">
          <mxGeometry x="790" y="660" width="240" height="30" as="geometry" />
        </mxCell>
        <mxCell id="3aa4n7tsI6vNhi9zj3cc-6" value="&lt;div&gt;Name&lt;br&gt;&lt;/div&gt;" style="rounded=0;whiteSpace=wrap;html=1;align=center;verticalAlign=middle;" vertex="1" parent="1">
          <mxGeometry x="570" y="700" width="90" height="30" as="geometry" />
        </mxCell>
        <mxCell id="3aa4n7tsI6vNhi9zj3cc-7" value="Date" style="rounded=0;whiteSpace=wrap;html=1;align=center;verticalAlign=middle;" vertex="1" parent="1">
          <mxGeometry x="660" y="700" width="110" height="30" as="geometry" />
        </mxCell>
        <mxCell id="3aa4n7tsI6vNhi9zj3cc-8" value="Drawn By" style="rounded=0;whiteSpace=wrap;html=1;align=center;verticalAlign=middle;" vertex="1" parent="1">
          <mxGeometry x="480" y="730" width="90" height="40" as="geometry" />
        </mxCell>
        <mxCell id="3aa4n7tsI6vNhi9zj3cc-9" value="Checked By" style="rounded=0;whiteSpace=wrap;html=1;align=center;verticalAlign=middle;" vertex="1" parent="1">
          <mxGeometry x="480" y="770" width="90" height="40" as="geometry" />
        </mxCell>
        <mxCell id="3aa4n7tsI6vNhi9zj3cc-10" value="TB" style="rounded=0;whiteSpace=wrap;html=1;align=center;verticalAlign=middle;fontSize=16;" vertex="1" parent="1">
          <mxGeometry x="570" y="730" width="90" height="40" as="geometry" />
        </mxCell>
        <mxCell id="3aa4n7tsI6vNhi9zj3cc-11" value="2022-03-17" style="rounded=0;whiteSpace=wrap;html=1;align=center;verticalAlign=middle;fontSize=16;" vertex="1" parent="1">
          <mxGeometry x="660" y="730" width="110" height="40" as="geometry" />
        </mxCell>
        <mxCell id="3aa4n7tsI6vNhi9zj3cc-12" value="" style="rounded=0;whiteSpace=wrap;html=1;align=center;verticalAlign=middle;" vertex="1" parent="1">
          <mxGeometry x="660" y="770" width="110" height="40" as="geometry" />
        </mxCell>
        <mxCell id="3aa4n7tsI6vNhi9zj3cc-13" value="" style="rounded=0;whiteSpace=wrap;html=1;align=center;verticalAlign=middle;" vertex="1" parent="1">
          <mxGeometry x="570" y="770" width="90" height="40" as="geometry" />
        </mxCell>
        <mxCell id="3aa4n7tsI6vNhi9zj3cc-14" value="" style="rounded=0;whiteSpace=wrap;html=1;align=center;verticalAlign=middle;" vertex="1" parent="1">
          <mxGeometry x="480" y="700" width="90" height="30" as="geometry" />
        </mxCell>
        <mxCell id="3aa4n7tsI6vNhi9zj3cc-15" value="Part No" style="rounded=0;whiteSpace=wrap;html=1;align=center;verticalAlign=middle;" vertex="1" parent="1">
          <mxGeometry x="480" y="620" width="90" height="40" as="geometry" />
        </mxCell>
        <mxCell id="3aa4n7tsI6vNhi9zj3cc-16" value="Assembly" style="rounded=0;whiteSpace=wrap;html=1;align=center;verticalAlign=middle;" vertex="1" parent="1">
          <mxGeometry x="480" y="660" width="90" height="40" as="geometry" />
        </mxCell>
        <mxCell id="3aa4n7tsI6vNhi9zj3cc-17" value="" style="rounded=0;whiteSpace=wrap;html=1;align=center;verticalAlign=middle;fontSize=16;" vertex="1" parent="1">
          <mxGeometry x="570" y="660" width="200" height="40" as="geometry" />
        </mxCell>
        <mxCell id="3aa4n7tsI6vNhi9zj3cc-18" value="" style="rounded=0;whiteSpace=wrap;html=1;align=center;verticalAlign=middle;fontSize=16;" vertex="1" parent="1">
          <mxGeometry x="570" y="620" width="200" height="40" as="geometry" />
        </mxCell>
        <mxCell id="3aa4n7tsI6vNhi9zj3cc-24" style="edgeStyle=orthogonalEdgeStyle;rounded=0;orthogonalLoop=1;jettySize=auto;html=1;fontSize=16;" edge="1" parent="1" source="3aa4n7tsI6vNhi9zj3cc-20" target="3aa4n7tsI6vNhi9zj3cc-23">
          <mxGeometry relative="1" as="geometry" />
        </mxCell>
        <mxCell id="3aa4n7tsI6vNhi9zj3cc-20" value="&lt;div&gt;Current Clamp 0&lt;/div&gt;" style="rounded=0;whiteSpace=wrap;html=1;labelBorderColor=none;fontSize=16;fillColor=none;" vertex="1" parent="1">
          <mxGeometry x="40" y="50" width="160" height="30" as="geometry" />
        </mxCell>
        <mxCell id="3aa4n7tsI6vNhi9zj3cc-25" style="edgeStyle=orthogonalEdgeStyle;rounded=0;orthogonalLoop=1;jettySize=auto;html=1;entryX=0;entryY=0.5;entryDx=0;entryDy=0;fontSize=16;" edge="1" parent="1" source="3aa4n7tsI6vNhi9zj3cc-21" target="3aa4n7tsI6vNhi9zj3cc-23">
          <mxGeometry relative="1" as="geometry" />
        </mxCell>
        <mxCell id="3aa4n7tsI6vNhi9zj3cc-21" value="&lt;div&gt;Current Clamp 15&lt;/div&gt;" style="rounded=0;whiteSpace=wrap;html=1;labelBorderColor=none;fontSize=16;fillColor=none;" vertex="1" parent="1">
          <mxGeometry x="40" y="130" width="160" height="30" as="geometry" />
        </mxCell>
        <mxCell id="3aa4n7tsI6vNhi9zj3cc-22" value="..." style="text;html=1;strokeColor=none;fillColor=none;align=center;verticalAlign=middle;whiteSpace=wrap;rounded=0;labelBorderColor=none;fontSize=16;" vertex="1" parent="1">
          <mxGeometry x="90" y="90" width="60" height="30" as="geometry" />
        </mxCell>
        <mxCell id="3aa4n7tsI6vNhi9zj3cc-32" style="edgeStyle=orthogonalEdgeStyle;rounded=0;orthogonalLoop=1;jettySize=auto;html=1;entryX=0;entryY=0.5;entryDx=0;entryDy=0;fontSize=16;" edge="1" parent="1" source="3aa4n7tsI6vNhi9zj3cc-23" target="3aa4n7tsI6vNhi9zj3cc-30">
          <mxGeometry relative="1" as="geometry" />
        </mxCell>
        <mxCell id="3aa4n7tsI6vNhi9zj3cc-23" value="Multiplexers" style="rounded=0;whiteSpace=wrap;html=1;labelBorderColor=none;fontSize=16;fillColor=none;" vertex="1" parent="1">
          <mxGeometry x="260" y="80" width="120" height="60" as="geometry" />
        </mxCell>
        <mxCell id="3aa4n7tsI6vNhi9zj3cc-33" style="edgeStyle=orthogonalEdgeStyle;rounded=0;orthogonalLoop=1;jettySize=auto;html=1;entryX=0;entryY=0.5;entryDx=0;entryDy=0;fontSize=16;" edge="1" parent="1" source="3aa4n7tsI6vNhi9zj3cc-28" target="3aa4n7tsI6vNhi9zj3cc-31">
          <mxGeometry relative="1" as="geometry" />
        </mxCell>
        <mxCell id="3aa4n7tsI6vNhi9zj3cc-28" value="Line Voltage Measurement" style="rounded=0;whiteSpace=wrap;html=1;labelBorderColor=none;fontSize=16;fillColor=none;" vertex="1" parent="1">
          <mxGeometry x="40" y="210" width="220" height="30" as="geometry" />
        </mxCell>
        <mxCell id="3aa4n7tsI6vNhi9zj3cc-35" style="edgeStyle=orthogonalEdgeStyle;rounded=0;orthogonalLoop=1;jettySize=auto;html=1;entryX=0;entryY=0.5;entryDx=0;entryDy=0;fontSize=16;" edge="1" parent="1" source="3aa4n7tsI6vNhi9zj3cc-30" target="3aa4n7tsI6vNhi9zj3cc-34">
          <mxGeometry relative="1" as="geometry" />
        </mxCell>
        <mxCell id="3aa4n7tsI6vNhi9zj3cc-30" value="Current Measurement Analog Frontend" style="rounded=0;whiteSpace=wrap;html=1;labelBorderColor=none;fontSize=16;fillColor=none;" vertex="1" parent="1">
          <mxGeometry x="400" y="60" width="140" height="100" as="geometry" />
        </mxCell>
        <mxCell id="3aa4n7tsI6vNhi9zj3cc-36" style="edgeStyle=orthogonalEdgeStyle;rounded=0;orthogonalLoop=1;jettySize=auto;html=1;entryX=0;entryY=0.5;entryDx=0;entryDy=0;fontSize=16;" edge="1" parent="1" source="3aa4n7tsI6vNhi9zj3cc-31" target="3aa4n7tsI6vNhi9zj3cc-34">
          <mxGeometry relative="1" as="geometry" />
        </mxCell>
        <mxCell id="3aa4n7tsI6vNhi9zj3cc-31" value="Voltage Measurement Analog Frontend" style="rounded=0;whiteSpace=wrap;html=1;labelBorderColor=none;fontSize=16;fillColor=none;" vertex="1" parent="1">
          <mxGeometry x="400" y="175" width="140" height="100" as="geometry" />
        </mxCell>
        <mxCell id="3aa4n7tsI6vNhi9zj3cc-48" style="edgeStyle=orthogonalEdgeStyle;rounded=0;orthogonalLoop=1;jettySize=auto;html=1;entryX=0.5;entryY=0;entryDx=0;entryDy=0;fontSize=16;" edge="1" parent="1" source="3aa4n7tsI6vNhi9zj3cc-34" target="3aa4n7tsI6vNhi9zj3cc-45">
          <mxGeometry relative="1" as="geometry" />
        </mxCell>
        <mxCell id="3aa4n7tsI6vNhi9zj3cc-34" value="ADC" style="rounded=0;whiteSpace=wrap;html=1;labelBorderColor=none;fontSize=16;fillColor=none;" vertex="1" parent="1">
          <mxGeometry x="580" y="130" width="120" height="60" as="geometry" />
        </mxCell>
        <mxCell id="3aa4n7tsI6vNhi9zj3cc-42" style="edgeStyle=orthogonalEdgeStyle;rounded=0;orthogonalLoop=1;jettySize=auto;html=1;entryX=1;entryY=0.5;entryDx=0;entryDy=0;fontSize=16;" edge="1" parent="1" source="3aa4n7tsI6vNhi9zj3cc-38" target="3aa4n7tsI6vNhi9zj3cc-39">
          <mxGeometry relative="1" as="geometry" />
        </mxCell>
        <mxCell id="3aa4n7tsI6vNhi9zj3cc-38" value="Stepper Controller" style="rounded=0;whiteSpace=wrap;html=1;labelBorderColor=none;fontSize=16;fillColor=none;" vertex="1" parent="1">
          <mxGeometry x="260" y="370" width="120" height="60" as="geometry" />
        </mxCell>
        <mxCell id="3aa4n7tsI6vNhi9zj3cc-44" style="edgeStyle=orthogonalEdgeStyle;rounded=0;orthogonalLoop=1;jettySize=auto;html=1;entryX=0.5;entryY=0;entryDx=0;entryDy=0;fontSize=16;" edge="1" parent="1" source="3aa4n7tsI6vNhi9zj3cc-39" target="3aa4n7tsI6vNhi9zj3cc-43">
          <mxGeometry relative="1" as="geometry" />
        </mxCell>
        <mxCell id="3aa4n7tsI6vNhi9zj3cc-39" value="&lt;div&gt;Stepper &lt;br&gt;&lt;/div&gt;&lt;div&gt;Driver&lt;/div&gt;" style="rounded=0;whiteSpace=wrap;html=1;labelBorderColor=none;fontSize=16;fillColor=none;" vertex="1" parent="1">
          <mxGeometry x="50" y="370" width="120" height="60" as="geometry" />
        </mxCell>
        <mxCell id="3aa4n7tsI6vNhi9zj3cc-41" style="edgeStyle=orthogonalEdgeStyle;rounded=0;orthogonalLoop=1;jettySize=auto;html=1;entryX=0.5;entryY=1;entryDx=0;entryDy=0;fontSize=16;" edge="1" parent="1" source="3aa4n7tsI6vNhi9zj3cc-40" target="3aa4n7tsI6vNhi9zj3cc-38">
          <mxGeometry relative="1" as="geometry" />
        </mxCell>
        <mxCell id="3aa4n7tsI6vNhi9zj3cc-40" value="Limit Switch" style="rounded=0;whiteSpace=wrap;html=1;labelBorderColor=none;fontSize=16;fillColor=none;" vertex="1" parent="1">
          <mxGeometry x="260" y="490" width="120" height="60" as="geometry" />
        </mxCell>
        <mxCell id="3aa4n7tsI6vNhi9zj3cc-43" value="Stepper Motor" style="rounded=0;whiteSpace=wrap;html=1;labelBorderColor=none;fontSize=16;fillColor=none;" vertex="1" parent="1">
          <mxGeometry x="50" y="490" width="120" height="60" as="geometry" />
        </mxCell>
        <mxCell id="3aa4n7tsI6vNhi9zj3cc-47" style="edgeStyle=orthogonalEdgeStyle;rounded=0;orthogonalLoop=1;jettySize=auto;html=1;fontSize=16;startArrow=blockThin;startFill=1;" edge="1" parent="1" source="3aa4n7tsI6vNhi9zj3cc-45" target="3aa4n7tsI6vNhi9zj3cc-46">
          <mxGeometry relative="1" as="geometry">
            <Array as="points">
              <mxPoint x="910" y="350" />
            </Array>
          </mxGeometry>
        </mxCell>
        <mxCell id="3aa4n7tsI6vNhi9zj3cc-49" style="edgeStyle=orthogonalEdgeStyle;rounded=0;orthogonalLoop=1;jettySize=auto;html=1;entryX=1;entryY=0.5;entryDx=0;entryDy=0;fontSize=16;startArrow=classic;startFill=1;" edge="1" parent="1" source="3aa4n7tsI6vNhi9zj3cc-45" target="3aa4n7tsI6vNhi9zj3cc-38">
          <mxGeometry relative="1" as="geometry" />
        </mxCell>
        <mxCell id="3aa4n7tsI6vNhi9zj3cc-57" style="edgeStyle=orthogonalEdgeStyle;rounded=0;orthogonalLoop=1;jettySize=auto;html=1;entryX=0;entryY=0.5;entryDx=0;entryDy=0;fontSize=16;startArrow=none;startFill=0;endArrow=classic;endFill=1;" edge="1" parent="1" source="3aa4n7tsI6vNhi9zj3cc-45" target="3aa4n7tsI6vNhi9zj3cc-52">
          <mxGeometry relative="1" as="geometry" />
        </mxCell>
        <mxCell id="3aa4n7tsI6vNhi9zj3cc-45" value="ESP32" style="rounded=0;whiteSpace=wrap;html=1;labelBorderColor=none;fontSize=16;fillColor=none;" vertex="1" parent="1">
          <mxGeometry x="580" y="310" width="120" height="60" as="geometry" />
        </mxCell>
        <mxCell id="3aa4n7tsI6vNhi9zj3cc-46" value="SD Card" style="rounded=0;whiteSpace=wrap;html=1;labelBorderColor=none;fontSize=16;fillColor=none;dashed=1;" vertex="1" parent="1">
          <mxGeometry x="850" y="430" width="120" height="60" as="geometry" />
        </mxCell>
        <mxCell id="3aa4n7tsI6vNhi9zj3cc-52" value="Servo 1" style="rounded=0;whiteSpace=wrap;html=1;labelBorderColor=none;fontSize=16;fillColor=none;" vertex="1" parent="1">
          <mxGeometry x="680" y="520" width="110" height="30" as="geometry" />
        </mxCell>
        <mxCell id="3aa4n7tsI6vNhi9zj3cc-55" style="edgeStyle=orthogonalEdgeStyle;rounded=0;orthogonalLoop=1;jettySize=auto;html=1;entryX=0.5;entryY=1;entryDx=0;entryDy=0;fontSize=16;startArrow=classic;startFill=1;endArrow=none;endFill=0;" edge="1" parent="1" source="3aa4n7tsI6vNhi9zj3cc-53" target="3aa4n7tsI6vNhi9zj3cc-45">
          <mxGeometry relative="1" as="geometry">
            <Array as="points">
              <mxPoint x="640" y="440" />
            </Array>
          </mxGeometry>
        </mxCell>
        <mxCell id="3aa4n7tsI6vNhi9zj3cc-53" value="&lt;div&gt;Servo 0&lt;/div&gt;" style="rounded=0;whiteSpace=wrap;html=1;labelBorderColor=none;fontSize=16;fillColor=none;" vertex="1" parent="1">
          <mxGeometry x="680" y="425" width="110" height="30" as="geometry" />
        </mxCell>
        <mxCell id="3aa4n7tsI6vNhi9zj3cc-60" style="edgeStyle=orthogonalEdgeStyle;rounded=0;orthogonalLoop=1;jettySize=auto;html=1;fontSize=16;startArrow=none;startFill=0;endArrow=classic;endFill=1;entryX=1.004;entryY=0.321;entryDx=0;entryDy=0;entryPerimeter=0;" edge="1" parent="1" source="3aa4n7tsI6vNhi9zj3cc-58" target="3aa4n7tsI6vNhi9zj3cc-45">
          <mxGeometry relative="1" as="geometry">
            <mxPoint x="910" y="330" as="targetPoint" />
            <Array as="points">
              <mxPoint x="910" y="329" />
            </Array>
          </mxGeometry>
        </mxCell>
        <mxCell id="3aa4n7tsI6vNhi9zj3cc-58" value="Door Sensor" style="rounded=0;whiteSpace=wrap;html=1;labelBorderColor=none;fontSize=16;fillColor=none;dashed=1;" vertex="1" parent="1">
          <mxGeometry x="850" y="150" width="120" height="60" as="geometry" />
        </mxCell>
        <mxCell id="3aa4n7tsI6vNhi9zj3cc-61" value="SPI" style="text;html=1;strokeColor=none;fillColor=none;align=center;verticalAlign=middle;whiteSpace=wrap;rounded=0;dashed=1;labelBorderColor=none;fontSize=16;" vertex="1" parent="1">
          <mxGeometry x="630" y="230" width="60" height="30" as="geometry" />
        </mxCell>
        <mxCell id="3aa4n7tsI6vNhi9zj3cc-62" value="SPI" style="text;html=1;strokeColor=none;fillColor=none;align=center;verticalAlign=middle;whiteSpace=wrap;rounded=0;dashed=1;labelBorderColor=none;fontSize=16;" vertex="1" parent="1">
          <mxGeometry x="490" y="340" width="60" height="30" as="geometry" />
        </mxCell>
        <mxCell id="3aa4n7tsI6vNhi9zj3cc-63" value="SPI" style="text;html=1;strokeColor=none;fillColor=none;align=center;verticalAlign=middle;whiteSpace=wrap;rounded=0;dashed=1;labelBorderColor=none;fontSize=16;" vertex="1" parent="1">
          <mxGeometry x="760" y="350" width="60" height="30" as="geometry" />
        </mxCell>
        <mxCell id="3aa4n7tsI6vNhi9zj3cc-64" value="Logic Low/High" style="text;html=1;strokeColor=none;fillColor=none;align=center;verticalAlign=middle;whiteSpace=wrap;rounded=0;dashed=1;labelBorderColor=none;fontSize=16;" vertex="1" parent="1">
          <mxGeometry x="740" y="300" width="130" height="30" as="geometry" />
        </mxCell>
        <mxCell id="3aa4n7tsI6vNhi9zj3cc-65" value="Logic Low/High" style="text;html=1;strokeColor=none;fillColor=none;align=center;verticalAlign=middle;whiteSpace=wrap;rounded=0;dashed=1;labelBorderColor=none;fontSize=16;" vertex="1" parent="1">
          <mxGeometry x="320" y="445" width="130" height="30" as="geometry" />
        </mxCell>
        <mxCell id="3aa4n7tsI6vNhi9zj3cc-66" value="Step/Dir" style="text;html=1;strokeColor=none;fillColor=none;align=center;verticalAlign=middle;whiteSpace=wrap;rounded=0;dashed=1;labelBorderColor=none;fontSize=16;" vertex="1" parent="1">
          <mxGeometry x="180" y="370" width="80" height="30" as="geometry" />
        </mxCell>
        <mxCell id="3aa4n7tsI6vNhi9zj3cc-67" value="PWM" style="text;html=1;strokeColor=none;fillColor=none;align=center;verticalAlign=middle;whiteSpace=wrap;rounded=0;dashed=1;labelBorderColor=none;fontSize=16;" vertex="1" parent="1">
          <mxGeometry x="580" y="395" width="60" height="30" as="geometry" />
        </mxCell>
      </root>
    </mxGraphModel>
  </diagram>
</mxfile>
